<svg xmlns="http://www.w3.org/2000/svg" x="0px" y="0px" viewBox="0 0 1920 1080" style="enable-background:new 0 0 1920 1080;" xml:space="preserve"><ellipse transform="matrix(0.9866 0.1633 -0.1633 0.9866 118.2492 -301.5343)" style="fill:#D1D1D1" cx="1893.5" cy="568.6" rx="277.6" ry="778.6"/><ellipse style="fill:#D8D8D8" cx="1676.9" cy="-292.8" rx="165" ry="1516.7"/><ellipse transform="matrix(-0.9938 0.1116 -0.1116 -0.9938 2945.8367 2010.4972)" style="fill:#E5E5E5" cx="1416.7" cy="1087.7" rx="291" ry="1636.7"/><ellipse style="fill:#EFEFEF" cx="1126.2" cy="1559.9" rx="297.1" ry="1335.1"/><ellipse style="fill:#F4F4F4" cx="987.8" cy="413.8" rx="243.7" ry="1371.1"/><ellipse style="fill:#FAFAFA" cx="521" cy="269.8" rx="308" ry="1659.2"/><path fill="#FFFFFF" d="M309.5,683.3c95.8,1076.2,67.4,1955.9-63.3,1965c-130.7,9.1-314.3-856-410.1-1932.1 s-67.4-1955.9,63.3-1965S213.7-392.9,309.5,683.3z"/></svg>
